<?xml version="1.0" encoding="utf-8"?>
<!-- Generator: Adobe Illustrator 23.0.5, SVG Export Plug-In . SVG Version: 6.00 Build 0)  -->
<svg version="1.1" id="Слой_1" xmlns="http://www.w3.org/2000/svg" xmlns:xlink="http://www.w3.org/1999/xlink" x="0px" y="0px"
	 viewBox="0 0 86.6 74.7" style="enable-background:new 0 0 86.6 74.7;" xml:space="preserve">
<style type="text/css">
	.st0{fill:#FFFFFF;stroke:#FFFFFF;stroke-miterlimit:10;}
	.st1{stroke:#FFFFFF;stroke-miterlimit:10;}
	.st2{fill:#22499C;stroke:#000000;stroke-miterlimit:10;}
	.st3{fill:#4F0C0B;stroke:#000000;stroke-miterlimit:10;}
</style>
<g id="Слой_2">
	<path class="st0" d="M51.1,7.7c-0.5-0.2-0.9-0.5-1.3-0.8c0,0,0,0,0,0c-0.4-0.2-0.7-0.4-1.1-0.5c-0.4-0.1-0.7-0.2-1.1-0.2
		c-0.5-0.4-1-0.7-1.5-0.9c-1.4-1.4-3.6-2-5.8-0.9c-0.4,0.1-0.7,0.3-1,0.6c-0.8,0.6-1.4,1.4-1.8,2.2c-1.3,2.2-2,4.9-2.3,7.2
		c-0.3,2.3,0.6,3.5,1.2,5.5c0.5,1.7,0.7,3,1.7,4.6c0,0,0-0.1,0-0.1c1.4,2.7,5,4.1,7.8,1.4c2.2-2.1,4-4.2,5.2-7
		c0.2-0.4,0.3-0.8,0.6-1.2c0.2-0.3,0.2-0.4,0.1-0.3c0.3-0.2,0.5-0.4,0.8-0.6c1.2-1.2,1.9-2.6,1.9-4.3c0-1.1-0.3-2.1-1-2.9
		C52.4,9,51.6,8.4,51.1,7.7z"/>
</g>
<title>Ресурс 1</title>
<path class="st1" d="M45.3,5c2.8,1.9,5.5,3.7,8.3,5.6"/>
<g>
	<g id="Слой_1-2">
		<circle class="st2" cx="71.4" cy="59.5" r="14.7"/>
		<path class="st3" d="M81.5,29.8l-28-19.2l-5.3,7.7l-6.5,9.4l6.8,9.7c0.6,0.9,1.7,1.3,2.7,1L81.5,29.8z"/>
		<path class="st3" d="M43.6,3.9L30.3,0.6c-2-0.5-4.4,1-5.5,3.3l-2.9,6c-1.3,2.7-0.4,5.4,2,5.8l10.4,1.6l9.5-13.2
			C43.7,4,43.6,4,43.6,3.9z"/>
		<path class="st3" d="M35.3,16.7L0.9,66.7c-0.7,0.9-0.5,2.3,0.5,2.9c0,0,0.1,0,0.1,0.1l6.1,4.2c1,0.7,2.3,0.4,3-0.5c0,0,0,0,0,0
			l31.3-45.7l-6.2-8.9C35.2,18.1,35.1,17.4,35.3,16.7z"/>
	</g>
</g>
</svg>
